<!-- icon666.com - MILLIONS OF FREE VECTOR ICONS --><svg version="1.1" id="Capa_1" xmlns="http://www.w3.org/2000/svg" xmlns:xlink="http://www.w3.org/1999/xlink" x="0px" y="0px" viewBox="0 0 511.999 511.999" style="enable-background:new 0 0 511.999 511.999;" xml:space="preserve"><g><g><path d="M340.608,226.688h-54.971v-54.972c0-6.117-4.977-11.093-11.094-11.093h-37.088c-6.118,0-11.094,4.977-11.094,11.093 v54.972H171.39c-6.117,0-11.093,4.977-11.093,11.094v37.088c0,6.117,4.976,11.094,11.093,11.094h54.971v54.972 c0,6.117,4.977,11.093,11.094,11.093h37.088c6.118,0,11.094-4.977,11.094-11.093v-54.972h54.971 c6.117,0,11.093-4.977,11.093-11.094v-37.088C351.701,231.665,346.724,226.688,340.608,226.688z M336.724,270.985h-58.575 c-4.137,0-7.49,3.353-7.49,7.49v58.575h-29.318v-58.575c0-4.136-3.353-7.49-7.49-7.49h-58.575v-29.317h58.575 c4.137,0,7.49-3.353,7.49-7.49v-58.575h29.318v58.575c0,4.136,3.353,7.49,7.49,7.49h58.575V270.985z"></path></g></g><g><g><path d="M415.381,65.969h-56.146c-4.137,0-7.49,3.353-7.49,7.49c0,4.137,3.353,7.49,7.49,7.49h27.081v359.86 c0,3.286-2.673,5.96-5.96,5.96H131.643c-3.287,0-5.96-2.674-5.96-5.96V80.948h26.957c4.137,0,7.49-3.353,7.49-7.49 c0-4.137-3.353-7.49-7.49-7.49H96.619c-13.662,0-24.777,11.115-24.777,24.777v396.477c0,13.662,11.115,24.777,24.777,24.777 H415.38c13.662,0,24.777-11.115,24.777-24.777V90.746C440.158,77.084,429.043,65.969,415.381,65.969z M415.381,497.02H96.619 c-5.402,0-9.797-4.395-9.797-9.797V90.746c0-5.402,4.395-9.798,9.797-9.798h14.084v359.86c0,11.546,9.394,20.939,20.939,20.939 h248.714c11.546,0,20.939-9.394,20.939-20.939V80.948h14.084c5.402,0,9.797,4.395,9.797,9.798v396.477h0.002 C425.178,492.625,420.783,497.02,415.381,497.02z"></path></g></g><g><g><path d="M317.611,41.904h-20.288v-0.581C297.323,18.537,278.786,0,256,0s-41.323,18.537-41.323,41.323v0.581h-20.288 c-7.871,0-14.275,6.403-14.275,14.274v34.561c0.001,7.871,6.404,14.274,14.275,14.274h123.222c7.871,0,14.275-6.403,14.275-14.274 V56.178C331.886,48.307,325.483,41.904,317.611,41.904z M229.657,41.323c0-14.526,11.818-26.343,26.343-26.343 s26.343,11.817,26.343,26.343v0.581h-52.686V41.323z M316.905,90.033H195.094V56.884h121.811V90.033z"></path></g></g></svg>