<!-- icon666.com - MILLIONS OF FREE VECTOR ICONS --><svg version="1.1" id="Capa_1" xmlns="http://www.w3.org/2000/svg" xmlns:xlink="http://www.w3.org/1999/xlink" x="0px" y="0px" viewBox="0 0 182.267 182.267" style="enable-background:new 0 0 182.267 182.267;" xml:space="preserve"><path d="M161.33,169.967H20.938C9.393,169.967,0,160.574,0,149.029V58.335c0-11.545,9.393-20.938,20.938-20.938h41.513V27.55 c0-8.409,6.841-15.25,15.25-15.25h26.866c8.409,0,15.25,6.841,15.25,15.25v9.848h41.513c11.545,0,20.938,9.393,20.938,20.938v90.694 C182.267,160.574,172.875,169.967,161.33,169.967z M151.878,164.967h9.451c8.788,0,15.938-7.149,15.938-15.938V58.335 c0-8.788-7.149-15.938-15.938-15.938h-9.451V164.967z M130.896,164.967h15.982V42.398h-15.982V164.967z M56.372,164.967h69.524 V42.398H56.372V164.967z M35.389,164.967h15.983V42.398H35.389V164.967z M20.938,42.398C12.149,42.398,5,49.547,5,58.335v90.694 c0,8.788,7.149,15.938,15.938,15.938h9.451V42.398H20.938z M67.451,37.398h47.366V27.55c0-5.652-4.598-10.25-10.25-10.25H77.701 c-5.652,0-10.25,4.598-10.25,10.25V37.398z"></path></svg>