<!-- icon666.com - MILLIONS OF FREE VECTOR ICONS --><svg viewBox="0 0 96 96" xmlns="http://www.w3.org/2000/svg"><g id="Health_Insurance" data-name="Health Insurance"><path d="m14.69 25.55h3v3a1 1 0 0 0 1 1h5.95a1 1 0 0 0 1-1v-3h3a1 1 0 0 0 1-1v-5.95a1 1 0 0 0 -1-1h-3v-3a1 1 0 0 0 -1-1h-5.98a1 1 0 0 0 -1 1v3h-3a1 1 0 0 0 -1 1v5.95a1 1 0 0 0 1.03 1zm1-5.95h3a1 1 0 0 0 1-1v-3h3.95v3a1 1 0 0 0 1 1h3v3.95h-3a1 1 0 0 0 -1 1v3h-3.98v-3a1 1 0 0 0 -1-1h-3z"></path><path d="m14.14 41.26h43.43a1 1 0 0 0 0-2h-43.43a1 1 0 0 0 0 2z"></path><path d="m14.14 74.64h22.29a1 1 0 0 0 0-2h-22.29a1 1 0 0 0 0 2z"></path><path d="m92.25 46.16c-.32-.44.27-.13-16.92-5.08v-30.73a3.59 3.59 0 0 0 -3.58-3.58h-14.31c-6.63-6.63-6.63-6.72-6.93-6.72s3 0-43.69 0a3.28 3.28 0 0 0 -3.27 3.23v78.33a3.28 3.28 0 0 0 3.27 3.27h3.9v3.18a3.57 3.57 0 0 0 3.57 3.58h48.22c2 1.29 4 2.33 5.67 3.23 2.14 1.13 2.03 1.13 2.33 1.13s.35-.06 2.27-1.08c6.88-3.59 19.67-10.28 19.67-27.7 0-21.77.09-20.77-.2-21.06zm-3 1-3.18 2.4c-19.21-5.56-13.46-3.86-14.56-4.19v-3.31c1.25.38 16.17 4.64 17.74 5.1zm-18.72 40.84a40.07 40.07 0 0 1 -7.85-5.11 19.7 19.7 0 0 1 -6.94-15.67v-15.81l14.77-4.25 14.76 4.25v15.8c0 9.47-5 14.7-9.94 18a53.72 53.72 0 0 1 -4.8 2.79zm-1-45.93v3.31l-14.53 4.18-3.18-2.4zm2.22-33.3a1.58 1.58 0 0 1 1.58 1.58v30.15c-3.08-.89-2.62-.78-2.88-.76a13.83 13.83 0 0 0 -2.29.63v-22.46a1 1 0 0 0 -.3-.71l-8.43-8.43zm-7 8.14h-12.22a1.28 1.28 0 0 1 -1.27-1.28v-12.21zm-57.92 66a1.27 1.27 0 0 1 -1.27-1.27v-78.36a1.27 1.27 0 0 1 1.26-1.28h42.44v13.63a3.28 3.28 0 0 0 3.27 3.28h13.63v22l-13.5 3.89h-38.52a1 1 0 0 0 0 2h34.43v3.56h-34.43a1 1 0 0 0 0 2h34.43v3.64h-34.43a1 1 0 0 0 0 2h34.43v3.57h-34.43a1 1 0 1 0 0 2h34.43v3.56h-34.43a1 1 0 0 0 0 2h34.49a26.24 26.24 0 0 0 4.46 13.8zm7.47 6.76a1.57 1.57 0 0 1 -1.57-1.58v-3.21h41.86a30.34 30.34 0 0 0 5 4.76zm52.13 2c-9.23-5.18-15.16-11.72-15.79-22.56-.08-1.23-.06.09-.06-20.31l3.17 2.39v16c0 11.08 5.94 17.58 15.77 22.5v3.6c-.19-.08-1.86-.95-3.1-1.65zm5.44 1.5-.35.19v-3.62c9.72-4.86 15.75-11.74 15.75-22.53v-16l3.18-2.4v18.4c0 16.21-12.1 22.53-18.59 25.93z"></path><path d="m81.78 60.06a3.16 3.16 0 0 0 -4.78-4.12l-9.45 11c-1.75-1.37-.87-.69-4-3.11a3.16 3.16 0 1 0 -3.88 5l6.47 5a3.16 3.16 0 0 0 4.21-.51zm-12.93 11.94a1.19 1.19 0 0 1 -1.58.16l-6.35-5a1.16 1.16 0 1 1 1.42-1.83l4.73 3.69a1 1 0 0 0 1.37-.14l10.07-11.63a1.16 1.16 0 0 1 1.76 1.51z"></path></g></svg>