<!-- icon666.com - MILLIONS OF FREE VECTOR ICONS --><svg id="Capa_1" enable-background="new 0 0 512 512" viewBox="0 0 512 512" xmlns="http://www.w3.org/2000/svg"><g><path d="m512 256c0-126.763-102.584-229.367-229.366-229.367h-53.267c-126.767 0-229.367 102.589-229.367 229.367 0 26.075 4.359 51.688 12.956 76.127 1.375 3.907 5.657 5.959 9.564 4.586 3.907-1.375 5.96-5.656 4.586-9.564-8.033-22.836-12.106-46.774-12.106-71.149 0-118.474 95.877-214.367 214.367-214.367 57.26 0 111.092 22.298 151.581 62.786 40.488 40.489 62.786 94.321 62.786 151.581 0 118.475-95.876 214.366-214.367 214.366-81.629 0-154.548-45.96-190.814-116.581-1.893-3.687-6.417-5.137-10.098-3.246-3.685 1.893-5.138 6.413-3.246 10.098 38.763 75.48 116.734 124.72 204.135 124.729.008 0 .016.001.023.001h53.267c127.052 0 229.366-103.092 229.366-229.367zm-85.497 158.9h-31.741c11.973-12.449 22.382-26.017 31.126-40.467h35.449c-9.98 15.032-21.771 28.635-34.834 40.467zm-47.556 15h29.09c-26.553 19.234-56.962 31.991-89.267 37.444 21.702-9.182 41.984-21.746 60.177-37.444zm55.265-70.466c6.553-12.946 11.837-26.487 15.804-40.467h37.63c-4.296 14.051-10.046 27.597-17.156 40.467zm57.402-55.467h-37.891c2.794-13.2 4.438-26.728 4.876-40.467h38.256c-.476 13.86-2.249 27.37-5.241 40.467zm5.242-55.467h-38.256c-.439-13.739-2.082-27.267-4.876-40.467h37.913c2.996 13.17 4.749 26.706 5.219 40.467zm-9.251-55.467h-37.589c-3.967-13.979-9.25-27.521-15.804-40.467h36.223c7.113 12.885 12.867 26.448 17.17 40.467zm-26.217-55.467h-35.499c-8.744-14.45-19.153-28.017-31.126-40.467h31.768c13.181 11.965 24.915 25.528 34.857 40.467zm-82.44-55.466c-18.14-15.652-38.359-28.188-59.99-37.364 32.073 5.507 62.522 18.249 89.017 37.364z"></path><path d="m352.983 137.586c2.865 2.991 7.613 3.093 10.604.227 2.991-2.865 3.093-7.613.227-10.604-35.463-37.011-83.211-57.394-134.446-57.394-102.663 0-186.184 83.523-186.184 186.185s83.521 186.184 186.184 186.184 186.184-83.522 186.184-186.184c0-37.419-11.06-73.508-31.984-104.365-2.324-3.428-6.988-4.326-10.416-1.998-3.429 2.324-4.323 6.988-1.998 10.416 19.232 28.364 29.398 61.542 29.398 95.947 0 94.391-76.793 171.184-171.185 171.184-94.391 0-171.184-76.793-171.184-171.184 0-94.392 76.793-171.185 171.184-171.185 47.108 0 91.009 18.742 123.616 52.771z"></path><path d="m199.839 259.09c1.404 1.39 3.3 2.168 5.274 2.168h.042c12.939-.072 30.235-.157 39.146-.157 26.451 0 48.798-21.852 48.798-47.716 0-25.865-22.347-47.717-48.798-47.717h-39.436c-1.993 0-3.903.793-5.311 2.204s-2.195 3.324-2.189 5.317c.147 50.95.028 39.908.248 80.608.011 1.99.812 3.894 2.226 5.293zm44.462-78.422c18.32 0 33.798 14.982 33.798 32.717 0 17.733-15.478 32.716-33.798 32.716-7.302 0-20.189.057-31.727.117-.168-32.693-.074-24.554-.188-65.55z"></path><path d="m244.301 291.101c20.712 0 40.345-8.009 55.281-22.553 15.165-14.766 23.517-34.356 23.517-55.163s-8.352-40.398-23.517-55.165c-14.937-14.543-34.569-22.552-55.281-22.552h-54.481c-12.406 0-22.5 10.094-22.5 22.5v138.799h-9.183c-12.406 0-22.5 10.094-22.5 22.5s10.094 22.5 22.5 22.5h9.183v11.864c0 12.406 10.094 22.5 22.5 22.5s22.5-10.094 22.5-22.5v-11.864h17.048c4.143 0 7.5-3.357 7.5-7.5s-3.357-7.5-7.5-7.5h-24.548c-4.143 0-7.5 3.357-7.5 7.5v19.364c0 4.136-3.364 7.5-7.5 7.5s-7.5-3.364-7.5-7.5v-19.364c0-4.143-3.357-7.5-7.5-7.5h-16.683c-4.136 0-7.5-3.364-7.5-7.5s3.364-7.5 7.5-7.5h16.683c4.143 0 7.5-3.357 7.5-7.5v-146.299c0-4.136 3.364-7.5 7.5-7.5h54.481c16.78 0 32.697 6.499 44.816 18.299 12.24 11.919 18.981 27.693 18.981 44.418s-6.741 32.498-18.981 44.416c-12.119 11.801-28.036 18.3-44.816 18.3-8.901 0-26.406.087-39.523.159-4.125.023-7.458 3.374-7.458 7.5v20.707c0 4.143 3.357 7.5 7.5 7.5h67.104c4.136 0 7.5 3.364 7.5 7.5s-3.364 7.5-7.5 7.5h-12.568c-4.143 0-7.5 3.357-7.5 7.5s3.357 7.5 7.5 7.5h12.568c12.406 0 22.5-10.094 22.5-22.5s-10.094-22.5-22.5-22.5h-59.604v-5.747c11.677-.062 24.717-.119 31.981-.119z"></path></g></svg>