<!-- icon666.com - MILLIONS OF FREE VECTOR ICONS --><svg viewBox="-82 0 409 409.6" xmlns="http://www.w3.org/2000/svg"><path d="m103.300781 254.726562c2.828125 0 5.121094-2.292968 5.121094-5.121093v-38.902344c0-2.828125-2.292969-5.117187-5.121094-5.117187h-39.90625c-2.828125 0-5.121093 2.289062-5.121093 5.117187v38.902344c0 2.828125 2.292968 5.121093 5.121093 5.121093zm-34.785156-38.902343h29.667969v28.660156h-29.667969zm0 0"></path><path d="m141.710938 254.726562h39.90625c2.828124 0 5.121093-2.292968 5.121093-5.121093v-38.902344c0-2.828125-2.292969-5.117187-5.121093-5.117187h-39.90625c-2.828126 0-5.121094 2.289062-5.121094 5.117187v38.902344c0 2.828125 2.292968 5.121093 5.121094 5.121093zm5.117187-38.902343h29.667969v28.660156h-29.667969zm0 0"></path><path d="m63.394531 185.664062h39.90625c2.828125 0 5.121094-2.289062 5.121094-5.117187v-38.898437c0-2.828126-2.292969-5.117188-5.121094-5.117188h-39.90625c-2.828125 0-5.121093 2.289062-5.121093 5.117188v38.898437c0 2.828125 2.292968 5.117187 5.121093 5.117187zm5.121094-38.894531h29.667969v28.65625h-29.667969zm0 0"></path><path d="m141.710938 185.664062h39.90625c2.828124 0 5.121093-2.289062 5.121093-5.117187v-38.898437c0-2.828126-2.292969-5.117188-5.121093-5.117188h-39.90625c-2.828126 0-5.121094 2.289062-5.121094 5.117188v38.898437c0 2.828125 2.292968 5.117187 5.121094 5.117187zm5.117187-38.894531h29.667969v28.65625h-29.667969zm0 0"></path><path d="m63.394531 116.609375h39.90625c2.828125 0 5.121094-2.289063 5.121094-5.121094v-38.898437c0-2.828125-2.292969-5.121094-5.121094-5.121094h-39.90625c-2.828125 0-5.121093 2.292969-5.121093 5.121094v38.898437c0 2.832031 2.292968 5.121094 5.121093 5.121094zm5.121094-38.898437h29.667969v28.660156h-29.667969zm0 0"></path><path d="m141.710938 116.609375h39.90625c2.828124 0 5.121093-2.289063 5.121093-5.121094v-38.898437c0-2.828125-2.292969-5.121094-5.121093-5.121094h-39.90625c-2.828126 0-5.121094 2.292969-5.121094 5.121094v38.898437c0 2.832031 2.292968 5.121094 5.121094 5.121094zm5.117187-38.898437h29.667969v28.660156h-29.667969zm0 0"></path><path d="m5.421875 370.140625c-2.828125 0-5.121094 2.289063-5.121094 5.121094v29.21875c0 2.828125 2.292969 5.121093 5.121094 5.121093h234.171875c2.828125 0 5.117188-2.292968 5.117188-5.121093v-29.21875c0-2.832031-2.289063-5.121094-5.117188-5.121094h-2.785156v-327.734375h2.785156c2.828125 0 5.117188-2.292969 5.117188-5.121094v-32.164062c0-2.832032-2.289063-5.121094-5.117188-5.121094h-234.171875c-2.828125 0-5.121094 2.289062-5.121094 5.121094v32.164062c0 2.828125 2.292969 5.121094 5.121094 5.121094h2.78125v327.734375zm229.050781 29.21875h-223.933594v-18.980469h223.933594zm-81.605468-29.21875h-60.722657v-82.0625h60.722657zm-142.328126-359.902344h223.933594v21.925781h-223.933594zm7.902344 32.167969h208.125v327.734375h-63.457031v-87.179687c0-2.832032-2.292969-5.121094-5.121094-5.121094h-70.964843c-2.824219 0-5.117188 2.289062-5.117188 5.121094v87.179687h-63.464844zm0 0"></path></svg>