<svg width="48" height="48" viewBox="0 0 48 48" fill="none" xmlns="http://www.w3.org/2000/svg">
  <path fill-rule="evenodd" clip-rule="evenodd" d="M36.501 14.0234H38C40.2091 14.0234 42 15.8143 42 18.0234V22.0469V25.0469V31.0841V34.0841V36.1102C42 39.4239 39.3137 42.1102 36 42.1102H12C8.68629 42.1102 6 39.4239 6 36.1102V18.0234C6 15.8143 7.79086 14.0234 10 14.0234H15.7536L28.7181 6.51522C30.1518 5.68487 31.9842 6.17584 32.8107 7.61182L36.501 14.0234ZM33.0396 14.0234L30.2146 9.11531L21.7397 14.0234H33.0396ZM38 17.0234H10C9.44772 17.0234 9 17.4712 9 18.0234V36.1102C9 37.7671 10.3431 39.1102 12 39.1102H36C37.6569 39.1102 39 37.767 39 36.1102V34.0841H28C25.7909 34.0841 24 32.2932 24 30.0841V26.0469C24 23.8377 25.7909 22.0469 28 22.0469H39V18.0234C39 17.4712 38.5523 17.0234 38 17.0234ZM39 25.0469V31.0841H28C27.4477 31.0841 27 30.6363 27 30.0841V26.0469C27 25.4946 27.4477 25.0469 28 25.0469H39Z" fill="#4BA2AB"/>
</svg>
