<svg width="42" height="42" viewBox="0 0 48 48" fill="none" xmlns="http://www.w3.org/2000/svg">
  <path fill-rule="evenodd" clip-rule="evenodd" d="M41 24C41 33.3888 33.3888 41 24 41C14.6112 41 7 33.3888 7 24C7 14.6112 14.6112 7 24 7C33.3888 7 41 14.6112 41 24ZM44 24C44 35.0457 35.0457 44 24 44C12.9543 44 4 35.0457 4 24C4 12.9543 12.9543 4 24 4C35.0457 4 44 12.9543 44 24ZM25.5004 28.176H21.9724V27.728C21.9724 26.02 22.5324 24.956 24.3804 23.472C26.2284 21.988 26.9564 21.008 26.9564 19.58C26.9564 18.124 25.7524 17.2 24.0444 17.2C22.3364 17.2 20.8804 18.236 20.8804 19.972C20.8804 20.336 20.9644 20.728 21.0764 21.008L17.8564 21.68C17.6044 21.148 17.4644 20.504 17.4644 19.664C17.4644 16.864 19.9564 14.008 23.9604 14.008C28.0204 14.008 30.4284 16.164 30.4284 19.328C30.4284 21.568 29.6164 22.94 26.8164 25.348C25.8084 26.216 25.5004 26.944 25.5004 28.176ZM25.5844 34H21.8884V30.136H25.5844V34Z" fill="#16A086"/>
</svg>
