<svg width="48" height="48" viewBox="0 0 48 48" fill="none" xmlns="http://www.w3.org/2000/svg">
  <path fill-rule="evenodd" clip-rule="evenodd" d="M36.4813 11.7415L34.5714 9.65752C33.8331 8.8519 32.5848 8.78805 31.7681 9.51412L28.6433 12.2922L33.2396 17.3663L36.3428 14.5812C37.1709 13.838 37.2331 12.5618 36.4813 11.7415ZM11 27.9779L26.4011 14.2856L31.007 19.3702L15.8135 33.0064H11V27.9779ZM38.693 9.71454L36.7831 7.63057C34.9372 5.61652 31.8165 5.45689 29.7748 7.27207L8.67114 26.0342C8.24424 26.4137 8 26.9577 8 27.5289V34.0064C8 35.111 8.89543 36.0064 10 36.0064H16.1964C16.6896 36.0064 17.1653 35.8242 17.5323 35.4948L38.3466 16.8139C40.4168 14.9558 40.5725 11.7653 38.693 9.71454ZM40 39H8V42H40V39Z" fill="#4D83FA"/>
</svg>
