<svg width="48" height="48" viewBox="0 0 48 48" fill="none" xmlns="http://www.w3.org/2000/svg">
  <path fill-rule="evenodd" clip-rule="evenodd" d="M28.2833 17.9594L27.5861 16.4095L23.998 8.43361L20.4101 16.4095L19.7129 17.9594L18.0251 18.1581L9.29274 19.1865L15.9176 24.6942L17.3581 25.8918L16.9143 27.7117L14.888 36.0218L22.5295 31.7323L23.998 30.9079L25.4665 31.7323L33.1098 36.0228L31.0849 27.7112L30.6416 25.8915L32.0818 24.6942L38.7065 19.1867L29.9712 18.1581L28.2833 17.9594ZM17.6742 15.1787L6.6278 16.4796C4.88245 16.6852 4.23175 18.8803 5.58314 20.0038L13.9997 27.0011L11.4284 37.5461C11.0142 39.2449 12.8258 40.6198 14.3505 39.7639L23.998 34.3483L33.6468 39.7646C35.1714 40.6204 36.9828 39.2458 36.569 37.5472L33.9997 27.0011L42.4161 20.0039C43.7675 18.8804 43.1168 16.6852 41.3714 16.4797L30.322 15.1787L25.8219 5.17558C25.1145 3.60292 22.8815 3.60294 22.1741 5.1756L17.6742 15.1787Z" fill="#F8B200"/>
</svg>
