<svg width="32" height="32" viewBox="0 0 32 32" fill="none" xmlns="http://www.w3.org/2000/svg">
  <path fill-rule="evenodd" clip-rule="evenodd" d="M5.33332 8.66669H26.6667C27.0348 8.66669 27.3333 8.96516 27.3333 9.33335V22.6667C27.3333 23.0349 27.0348 23.3334 26.6667 23.3334H23.796V19.7463C24.7466 18.7832 25.3333 17.4601 25.3333 16C25.3333 13.0545 22.9455 10.6667 20 10.6667C17.0545 10.6667 14.6667 13.0545 14.6667 16C14.6667 17.3667 15.1807 18.6133 16.026 19.5571V23.3334H5.33332C4.96513 23.3334 4.66666 23.0349 4.66666 22.6667V9.33335C4.66666 8.96516 4.96513 8.66669 5.33332 8.66669ZM16.026 25.3334H5.33332C3.86056 25.3334 2.66666 24.1394 2.66666 22.6667V9.33335C2.66666 7.86059 3.86056 6.66669 5.33332 6.66669H26.6667C28.1394 6.66669 29.3333 7.86059 29.3333 9.33335V22.6667C29.3333 24.1395 28.1394 25.3334 26.6667 25.3334H23.796V26.9664C23.796 27.2883 23.641 27.5905 23.3796 27.7784C23.1182 27.9663 22.7823 28.0168 22.4772 27.9142L19.9241 27.0554L17.342 27.9152C17.037 28.0167 16.7019 27.9655 16.4412 27.7775C16.1805 27.5896 16.026 27.2878 16.026 26.9664V25.3334ZM18.026 20.9561V25.5794L19.6098 25.0521C19.8159 24.9835 20.0387 24.9838 20.2446 25.0531L21.796 25.5749V21.0234C21.2348 21.224 20.6302 21.3333 20 21.3333C19.3027 21.3333 18.6366 21.1995 18.026 20.9561ZM23.3333 16C23.3333 17.841 21.841 19.3333 20 19.3333C18.1591 19.3333 16.6667 17.841 16.6667 16C16.6667 14.1591 18.1591 12.6667 20 12.6667C21.841 12.6667 23.3333 14.1591 23.3333 16ZM8 13H13.3333V15H8V13ZM8 17H12V19H8V17Z" fill="white"/>
</svg>
