<svg width="32" height="32" viewBox="0 0 32 32" fill="none" xmlns="http://www.w3.org/2000/svg">
  <path fill-rule="evenodd" clip-rule="evenodd" d="M14.6688 6.34623L14.6688 5.04136V4.70803C14.6688 4.41106 15.0278 4.26233 15.2378 4.47232L15.4735 4.70802L16.3962 5.63071L16.6688 5.90329L17.6253 6.85979C17.8856 7.12014 17.8856 7.54225 17.6253 7.8026L16.6688 8.75909L16.3962 9.03167L15.4735 9.95435L15.2378 10.1901C15.0278 10.4 14.6688 10.2513 14.6688 9.95435L14.6688 9.62102V8.38271H8.25716C6.9685 8.38271 5.92383 9.42738 5.92383 10.716V12.3305L26.0777 12.3306V10.716C26.0777 9.42738 25.033 8.38271 23.7443 8.38271H20.0008V6.38271H23.7443C26.1376 6.38271 28.0777 8.32281 28.0777 10.716V21.2801C28.0777 23.6734 26.1376 25.6135 23.7443 25.6135H17.3337V25.7444L17.3337 27.0493V27.3826C17.3337 27.6796 16.9746 27.8283 16.7646 27.6183L16.5289 27.3826L15.6062 26.4599L15.3337 26.1873L14.3772 25.2308C14.1168 24.9705 14.1168 24.5484 14.3772 24.288L15.3337 23.3315L15.6062 23.0589L16.5289 22.1363L16.7646 21.9006C16.9746 21.6906 17.3337 21.8393 17.3337 22.1363V22.4696L17.3337 23.6135H23.7443C25.033 23.6135 26.0777 22.5688 26.0777 21.2801V14.3306L5.92383 14.3305V21.2801C5.92383 22.5688 6.9685 23.6135 8.25716 23.6135H12.0008V25.6135H8.25716C5.86393 25.6135 3.92383 23.6734 3.92383 21.2801V10.716C3.92383 8.32281 5.86393 6.38271 8.25716 6.38271H14.6688V6.34623Z" fill="white"/>
</svg>
