<svg width="32" height="32" viewBox="0 0 32 32" fill="none" xmlns="http://www.w3.org/2000/svg">
  <path fill-rule="evenodd" clip-rule="evenodd" d="M3.45004 13.0078L16.0003 7.39661L28.5506 13.0078L16.0003 18.6189L3.45004 13.0078ZM16.5445 5.44913L31.4088 12.0949C32.1979 12.4477 32.1979 13.5679 31.4088 13.9207L25.3288 16.639V21.1644C25.3288 22.1591 24.8858 23.1021 24.1202 23.7372C19.4135 27.6413 12.5941 27.6413 7.88745 23.7372C7.12186 23.1021 6.67887 22.1591 6.67887 21.1644V16.6421L4.31038 15.5832V20.6564H2.31038V14.689L0.591842 13.9207C-0.197281 13.5679 -0.197281 12.4477 0.591843 12.0949L15.4561 5.44913C15.8024 5.2943 16.1982 5.2943 16.5445 5.44913ZM8.67887 17.5363V21.1644C8.67887 21.564 8.8568 21.9427 9.16431 22.1978C13.1305 25.4877 18.8771 25.4877 22.8433 22.1978C23.1508 21.9427 23.3288 21.564 23.3288 21.1644V17.5332L16.5445 20.5664C16.1982 20.7212 15.8024 20.7212 15.4561 20.5664L8.67887 17.5363Z" fill="white"/>
</svg>
