<svg width="32" height="32" viewBox="0 0 32 32" fill="none" xmlns="http://www.w3.org/2000/svg">
  <path fill-rule="evenodd" clip-rule="evenodd" d="M24.334 9.34896H25.3333C26.8061 9.34896 28 10.5429 28 12.0156V14.6979V16.6979V20.7227V22.7227V24.0735C28 26.2826 26.2091 28.0735 24 28.0735H8C5.79086 28.0735 4 26.2826 4 24.0735V12.0156C4 10.5429 5.19391 9.34896 6.66667 9.34896H10.5024L19.1454 4.34348C20.1012 3.78992 21.3228 4.11723 21.8738 5.07455L24.334 9.34896ZM22.0264 9.34896L20.1431 6.07687L14.4932 9.34896H22.0264ZM25.3333 11.349H6.66667C6.29848 11.349 6 11.6474 6 12.0156V24.0735C6 25.178 6.89543 26.0735 8 26.0735H24C25.1046 26.0735 26 25.178 26 24.0735V22.7227H18.6667C17.1939 22.7227 16 21.5288 16 20.056V17.3646C16 15.8918 17.1939 14.6979 18.6667 14.6979H26V12.0156C26 11.6474 25.7015 11.349 25.3333 11.349ZM26 16.6979V20.7227H18.6667C18.2985 20.7227 18 20.4242 18 20.056V17.3646C18 16.9964 18.2985 16.6979 18.6667 16.6979H26Z" fill="white"/>
</svg>
