<svg width="32" height="32" viewBox="0 0 32 32" fill="none" xmlns="http://www.w3.org/2000/svg">
  <path fill-rule="evenodd" clip-rule="evenodd" d="M15.0072 7.38189C9.95041 7.88029 6 12.1454 6 17.3332C6 22.8561 10.4772 27.3332 16 27.3332C21.5228 27.3332 26 22.8561 26 17.3332C26 12.1802 22.1024 7.93749 17.0943 7.39241C17.2525 8.02476 17.3333 8.67645 17.3333 9.33322H15.3333C15.3333 8.66698 15.2224 8.00771 15.0072 7.38189ZM16.2632 5.33605C22.7691 5.47603 28 10.7937 28 17.3332C28 23.9606 22.6274 29.3332 16 29.3332C9.37258 29.3332 4 23.9606 4 17.3332C4 11.403 8.30166 6.47749 13.9549 5.5068C13.5818 5.05624 13.1435 4.66099 12.6527 4.33501L13.7591 2.66895C14.7895 3.35325 15.6463 4.26651 16.2632 5.33605ZM10.8038 20.3332C11.3305 21.2453 12.0879 22.0028 13 22.5294C13.9121 23.056 14.9468 23.3332 16 23.3332C17.0532 23.3332 18.0879 23.056 19 22.5294C19.9121 22.0028 20.6695 21.2453 21.1962 20.3332L22.9282 21.3332C22.2261 22.5494 21.2162 23.5593 20 24.2614C18.7838 24.9636 17.4043 25.3332 16 25.3332C14.5957 25.3332 13.2162 24.9636 12 24.2614C10.7838 23.5593 9.77394 22.5494 9.0718 21.3332L10.8038 20.3332ZM13.3454 16.6707C13.3454 17.7776 12.4473 18.6749 11.3394 18.6749C10.2315 18.6749 9.33333 17.7776 9.33333 16.6707C9.33333 15.5639 10.2315 14.6666 11.3394 14.6666C12.4473 14.6666 13.3454 15.5639 13.3454 16.6707ZM20.6727 18.6749C21.7806 18.6749 22.6787 17.7776 22.6787 16.6707C22.6787 15.5639 21.7806 14.6666 20.6727 14.6666C19.5648 14.6666 18.6667 15.5639 18.6667 16.6707C18.6667 17.7776 19.5648 18.6749 20.6727 18.6749Z" fill="white"/>
</svg>
