<svg width="32" height="32" viewBox="0 0 32 32" fill="none" xmlns="http://www.w3.org/2000/svg">
  <path fill-rule="evenodd" clip-rule="evenodd" d="M25.3334 4.00521L13.3334 4.00521V6.00521H18.3334V8H15.9587C14.4814 8 13.2838 9.19391 13.2838 10.6667L11.9463 10.6667C7.22842 10.6667 3.3256 14.1456 2.67833 18.6706C2.57405 19.3996 3.18289 20 3.92155 20H7.93394C8.6726 20 9.24368 19.3673 9.59837 18.7214C9.94911 18.0826 10.5545 17.6027 11.2783 17.4172C11.4918 17.3624 11.7157 17.3333 11.9463 17.3333H13.2838C13.2838 18.8061 14.4814 20 15.9587 20H22.646C24.1233 20 25.3209 18.8061 25.3209 17.3333L28.5926 17.3333C29.3312 17.3333 29.3333 16.9864 29.3333 16.25V11.75C29.3333 11.0136 29.3312 10.6667 28.5926 10.6667H25.3209C25.3209 9.19391 24.1233 8 22.646 8H20.3334V6.00521H25.3334V4.00521ZM15.29 11.3333C15.29 12.0697 14.693 12.6667 13.9566 12.6667H11.9463C8.58001 12.6667 5.73934 14.9225 4.86668 18H7.68231L7.6978 17.9802C7.74326 17.9208 7.79153 17.8467 7.8386 17.761C8.63061 16.3187 10.1716 15.3333 11.9463 15.3333H13.9566C14.693 15.3333 15.29 15.9303 15.29 16.6667V17.3333C15.29 17.7015 15.5894 18 15.9587 18H22.646C23.0153 18 23.3147 17.7015 23.3147 17.3333V16.6667C23.3147 15.9303 23.9117 15.3333 24.6481 15.3333L27.3271 15.3333V12.6667H24.6481C23.9117 12.6667 23.3147 12.0697 23.3147 11.3333V10.6667C23.3147 10.2985 23.0153 10 22.646 10H15.9587C15.5894 10 15.29 10.2985 15.29 10.6667V11.3333ZM5.23325 22.1631C6.67107 24.0003 7.1111 24.9369 7.1111 25.9287C7.1111 27.0727 6.11618 28 4.88888 28C3.66158 28 2.66666 27.0727 2.66666 25.9287C2.66666 24.7738 3.11647 23.9878 4.54561 22.1641C4.72132 21.9398 5.05768 21.9387 5.23325 22.1631Z" fill="white"/>
</svg>
