<svg width="32" height="32" viewBox="0 0 32 32" fill="none" xmlns="http://www.w3.org/2000/svg">
  <path fill-rule="evenodd" clip-rule="evenodd" d="M12.5272 8.37578C12.6744 7.73785 12.9296 7.10615 13.3677 6.47608C14.8059 5.75078 16.5143 5.75081 17.9525 6.47617C18.3919 7.10703 18.65 7.7372 18.8001 8.37376C16.7515 7.77731 14.5755 7.77798 12.5272 8.37578ZM12.3343 10.5513L12.3463 10.981C12.3465 10.9903 12.3467 10.9995 12.3467 11.0088C12.3467 12.4196 12.8055 13.386 13.4081 13.996C14.0192 14.6147 14.8379 14.9288 15.6667 14.9288C16.4954 14.9288 17.3141 14.6147 17.9252 13.996C18.5278 13.386 18.9867 12.4196 18.9867 11.0088C18.9867 10.9995 18.9868 10.9903 18.9871 10.981L18.999 10.5509C16.8544 9.71881 14.4789 9.71892 12.3343 10.5513ZM19.1139 4.82887C16.9711 3.63322 14.3489 3.63322 12.2061 4.82887C12.0839 4.89707 11.9773 4.99016 11.8933 5.10213C10.4533 7.02211 10.3333 8.96287 10.3333 10.5288C10.3333 10.5381 10.3335 10.5473 10.3337 10.5566L10.3467 11.0231C10.3498 12.8856 10.9704 14.3742 11.9852 15.4016C12.9941 16.4229 14.3354 16.9288 15.6667 16.9288C16.9979 16.9288 18.3392 16.4229 19.3481 15.4016C20.3629 14.3742 20.9835 12.8857 20.9867 11.0231L20.9996 10.5566C20.9999 10.5473 21 10.5381 21 10.5288C21 8.9417 20.864 7.01864 19.4267 5.10213C19.3427 4.99016 19.2361 4.89707 19.1139 4.82887ZM18.745 18.333C19.0208 18.0563 19.4324 17.9655 19.799 18.1006C23.9703 19.6374 27 23.6371 27 28.3322C27 28.8845 26.5523 29.3322 26 29.3322C25.4477 29.3322 25 28.8845 25 28.3322C25 24.7409 22.8128 21.6213 19.692 20.2161L16.3483 23.5714C15.9595 23.9616 15.3284 23.9639 14.9368 23.5766L11.7973 20.4716C8.94674 21.9732 7 24.9456 7 28.3456C7 28.8979 6.55228 29.3456 6 29.3456C5.44772 29.3456 5 28.8979 5 28.3456C5 23.8733 7.73562 20.0324 11.6006 18.3488C11.9757 18.1854 12.4124 18.2669 12.7032 18.5546L15.6349 21.454L18.745 18.333Z" fill="white"/>
</svg>
