<svg  viewBox="0 0 384 352" fill="none" xmlns="http://www.w3.org/2000/svg">
  <path fill-rule="evenodd" clip-rule="evenodd" d="M135.804 94.4756C142.104 81.5347 167.816 60.7612 196.081 63.3153C200.508 52.7583 201.785 50.376 204.169 45.9489C206.553 41.5217 211.236 36.9231 217.366 36.242C223.495 35.5609 234.393 34.7095 241.374 34.5392C248.356 34.3689 254.145 37.4339 256.018 42.5421C257.142 45.6086 258.328 49.9033 259.354 53.6198C260.037 56.0943 260.65 58.3125 261.126 59.7411C273.897 61.1033 291.776 67.7441 299.268 88.0068C306.137 106.586 307.138 132.752 307.65 146.16C307.697 147.375 307.739 148.486 307.781 149.476C307.921 152.729 308.086 157.301 308.279 162.672C308.795 176.983 309.515 196.971 310.506 212.818C311.868 234.613 312.89 268.328 302.844 287.91C292.797 307.491 278.494 313.621 243.758 316.345C209.022 319.07 139.89 315.153 110.944 311.067C87.7864 307.798 85.7431 299.942 87.6161 296.423C85.8566 295.288 82.61 291.894 83.6998 287.399C84.4209 284.424 85.6194 276.676 86.7392 269.437C87.7345 263.003 88.6678 256.97 89.1485 255.046C86.9388 251.258 87.6552 248.348 88.8566 243.468C88.9513 243.083 89.049 242.686 89.1485 242.276C89.5852 240.474 90.1269 237.343 90.7512 233.734C92.0742 226.087 93.768 216.295 95.619 212.478C98.3434 206.859 102.43 202.942 106.857 202.942C108.219 195.791 113.328 171.612 115.541 165.141C105.154 168.717 69.0561 173.825 69.0561 135.003C69.0561 92.0934 103.622 91.7512 111.965 93.2853C115.062 93.8546 117.374 94.1519 119.507 94.4261C121.972 94.7431 124.199 95.0293 127.12 95.6691L135.804 94.4756ZM245.887 59.9978C235.159 60.3951 211.9 61.5133 204.68 62.8073C206.723 57.3585 209.415 50.9567 210.895 48.2488C213.875 42.7988 220.175 42.3744 226.05 42.2041C227.57 42.16 229.232 41.9507 230.896 41.7412C235.661 41.1411 240.434 40.5401 241.885 43.8217C243.452 47.3634 245.205 56.0815 245.887 59.9978Z" fill="#DDF5E7"/>
  <path d="M145.564 82.3713C166.525 64.4242 181.726 62.6828 196.191 62.951C199.271 55.9867 202.397 49.2642 204.562 45.6736C207.307 41.1199 211.039 36.8773 218.893 36.2313C228.67 35.4271 237.241 34.6252 242.063 34.6252C246.885 34.6252 252.778 35.6956 255.858 43.0619C258.322 48.955 260.456 56.4106 261.215 59.4017M255.858 59.9375C259.474 59.8035 266.171 60.0714 270.323 61.0089C274.475 61.9465 289.118 67.3185 296.842 83.5767C307.69 106.412 306.887 134.538 308.494 179.004C309.137 196.809 313.985 234.988 309.699 263.65C305.413 292.311 292.958 305.571 277.421 310.66M245.077 54.4462C244.809 53.1069 244.085 49.7987 243.335 47.2808C242.398 44.1334 241.46 40.7181 233.692 41.5886C225.924 42.4592 222.509 42.3253 219.495 42.5931C216.482 42.861 212.196 44.87 209.919 50.2273C207.642 55.5846 205.499 60.4062 204.562 62.951C208.151 62.5224 233.067 61.0313 245.077 60.3393M113.085 175.689C110.641 182.352 108.083 197.165 106.69 202.844C100.06 204.518 95.875 211.349 94.2008 216.974C92.7089 221.987 89.6136 240.345 88.5421 247.31C88.0035 250.811 88.6872 254.219 89.3123 255.112C87.7943 263.728 85.4952 275.972 84.1559 287.088C83.4394 293.035 86.5482 295.763 89.7811 296.463C113.889 301.687 170.007 304.633 201.481 304.633C211.132 304.633 216.75 297.937 218.491 288.829C220.232 279.722 227.33 237.935 227.866 231.506M87.1024 297.401C87.6381 303.83 90.2154 307.684 101.701 309.723C124.336 313.741 185.008 317.223 210.991 317.491C235.905 317.748 255.099 315.884 258.671 314.946M85.3612 98.912C73.9769 106.144 67.816 122.35 69.6911 140.565C71.5661 158.78 85.0934 167.218 97.951 167.754C110.809 168.289 115.496 164.405 118.978 163.334C126.077 166.548 169.605 170.298 197.329 165.209M95.1383 94.6262C99.826 93.9118 113.219 93.1261 129.291 95.6976C152.73 91.6796 175.096 89.4028 205.365 91.1439M215.009 92.4832C231.884 88.3313 250.099 86.7241 263.894 86.5902C277.689 86.4562 286.261 102.796 285.323 120.609C283.073 120.716 280.301 121.011 278.895 121.011M208.312 165.209C226.259 167.218 241.259 168.155 249.563 167.754C257.867 167.352 261.349 162.396 264.296 157.91M132.907 260.168C132.327 262.891 131.568 266.663 131.233 269.442C130.891 272.285 131.836 273.695 135.05 273.963C138.265 274.231 143.488 274.632 146.301 274.632C149.113 274.632 150.567 271.763 151.323 268.204C152.127 264.42 152.132 263.301 152.328 261.976C152.596 260.168 153.064 257.221 148.645 256.953C145.109 256.739 141.647 256.618 139.437 256.618" stroke="black" stroke-width="2.65177" stroke-linecap="round" stroke-linejoin="round"/>
  <path d="M129.249 96.2656C114.435 100.352 102.431 129.044 106.347 148.881M105.07 106.993C91.9587 125.042 89.7451 167.015 112.817 165.397M214.471 92.2642C199.317 99.1603 185.61 131.513 195.145 154.159M194.72 100.522C177.522 124.702 178.033 161.736 195.656 165.057M264.192 93.1155C244.099 93.1155 235.415 123.084 236.948 140.452C238.48 157.82 248.016 161.396 251.932 161.396M256.359 127.511H264.192C262.83 136.536 259.084 148.455 253.124 145.901C246.923 143.243 248.356 125.297 251.932 116.443C256.359 105.481 265.213 99.4157 270.492 112.186C274.369 121.567 272.876 135.855 269.13 145.901M106.347 203.369C109.965 202.602 117.653 202.432 125.418 202.432C135.123 202.432 194.72 203.113 209.704 204.646C223.271 206.033 229.456 211.797 229.456 219.97M89.3195 254.366C92.5972 259.857 98.5802 260.708 102.473 261.134C108.688 261.815 119.586 262.411 127.248 262.922M152.747 265.008C161.005 265.207 179.633 265.672 188.079 265.945C198.636 266.285 202.893 261.858 205.277 256.069C207.661 250.279 214.301 224.908 216.174 219.119C217.673 214.487 220.772 214.351 222.134 214.862M258.402 182.85C253.975 204.646 236.607 275.48 243.418 296.594" stroke="black" stroke-width="1.70471" stroke-linecap="round" stroke-linejoin="round"/>
</svg>
