<svg width="290" height="253" viewBox="0 0 290 253" fill="none" xmlns="http://www.w3.org/2000/svg">
  <path d="M283.632 68.4324C271.57 76.5194 260.418 85.7676 250.249 96.2922L250.51 97.2128L230.675 117.509C237.13 82.3571 241.367 46.3371 242.172 18.854L59.6558 2C59.6558 2 62.9617 49.1409 47.562 110.123C32.1622 171.104 1.54053 222.284 1.54053 222.284L178.397 251.2C200.043 219.114 215.495 179.934 225.768 140.608L232.275 134.017L236.941 129.707L239.097 132.134C263.305 112.456 279.751 95.7795 288.905 73.9039C287.859 71.2571 286.269 69.3217 283.632 68.4429V68.4324Z" fill="white"/>
  <path d="M85.7381 150.755L74.5544 158.779L61.5713 159.104L64.5425 170.842L58.799 183.448L72.4516 182.998L83.1226 191.483L88.1024 177.904L100.332 169.806L88.9499 162.64L85.7276 150.755H85.7381ZM64.7831 198.838C61.1529 197.509 58.2131 195.584 55.901 193.272C53.6204 191.002 51.9465 188.365 50.7957 185.541C49.6553 182.768 49.0276 179.808 48.8289 176.847C48.6301 173.928 48.8602 170.999 49.4356 168.226C49.896 166.04 50.5551 163.937 51.392 161.96C52.2289 159.983 53.2333 158.141 54.405 156.426C55.5663 154.72 56.8949 153.14 58.37 151.718C59.8347 150.305 61.4458 149.039 63.1929 147.951C65.1807 146.717 67.273 145.681 69.4386 144.855C71.6147 144.018 73.8535 143.39 76.1237 142.972C78.4044 142.553 80.7164 142.344 83.018 142.365C85.3301 142.386 87.6317 142.637 89.881 143.139C92.1093 143.631 94.2121 144.353 96.1476 145.263C98.1039 146.194 99.8929 147.324 101.494 148.652C103.115 149.991 104.527 151.529 105.72 153.235C106.923 154.961 107.896 156.875 108.597 158.936C109.56 161.771 110.125 164.659 110.281 167.536C110.449 170.455 110.208 173.353 109.56 176.167C108.911 178.981 107.854 181.754 106.4 184.327C104.935 186.911 103.084 189.328 100.855 191.473C98.6375 193.617 96.1371 195.417 93.4484 196.85C90.7597 198.283 87.8828 199.35 84.9011 200.03C81.93 200.71 78.8751 201.003 75.7889 200.899C72.7341 200.804 69.6688 200.313 66.6558 199.434C66.4988 199.392 66.3419 199.34 66.185 199.298C66.0281 199.256 65.8711 199.204 65.7142 199.151C65.5573 199.099 65.4108 199.047 65.2539 198.995C65.1074 198.942 64.9505 198.89 64.804 198.827L64.7831 198.838ZM91.5025 139.122C88.9499 138.578 86.3239 138.316 83.6876 138.306C81.0826 138.306 78.4567 138.546 75.8726 139.038C73.3095 139.519 70.7673 140.252 68.3192 141.204C65.8711 142.156 63.5068 143.327 61.2575 144.729C59.2279 145.995 57.3448 147.46 55.6395 149.102C53.9238 150.745 52.3754 152.555 51.0154 154.521C49.6449 156.499 48.4627 158.622 47.4793 160.882C46.4959 163.152 45.7112 165.559 45.1672 168.08C44.4768 171.26 44.1838 174.619 44.3826 177.977C44.5814 181.387 45.2823 184.808 46.5691 188.041C47.8768 191.326 49.8018 194.423 52.4277 197.09C55.1059 199.811 58.5165 202.102 62.7535 203.713C62.9314 203.776 63.1092 203.849 63.2871 203.912C63.4649 203.974 63.6428 204.037 63.8311 204.1C64.0089 204.163 64.1972 204.225 64.3751 204.288C64.5634 204.351 64.7413 204.403 64.9296 204.466C68.382 205.512 71.9181 206.098 75.4541 206.234C79.0321 206.37 82.5891 206.046 86.0415 205.261C89.5148 204.477 92.873 203.232 96.022 201.547C99.171 199.863 102.1 197.739 104.705 195.218C107.321 192.686 109.486 189.851 111.192 186.817C112.886 183.804 114.11 180.592 114.853 177.276C115.586 174.001 115.847 170.633 115.627 167.264C115.408 163.937 114.728 160.621 113.577 157.378C112.719 154.971 111.547 152.743 110.114 150.734C108.691 148.747 107.017 146.979 105.103 145.43C103.22 143.903 101.117 142.605 98.8258 141.549C96.566 140.503 94.118 139.697 91.5235 139.153L91.5025 139.122Z" fill="url(#paint0_linear_3068_24575)"/>
  <path d="M259.885 106.524C257.165 102.664 253.754 99.3472 249.81 96.7318C269.102 76.9485 283.633 68.4326 283.633 68.4326C286.113 69.3009 288.059 71.2468 288.906 73.7263C280.788 97.8721 248.816 124.361 239.097 132.124L236.723 129.739L263.369 103.145" stroke="black" stroke-width="2.09236" stroke-linecap="round" stroke-linejoin="round"/>
  <path d="M246.535 107.476L196.998 156.908" stroke="black" stroke-width="1.04618" stroke-linecap="round" stroke-linejoin="round"/>
  <path d="M216.532 143.526L180.396 179.567" stroke="black" stroke-width="1.04618" stroke-linecap="round" stroke-linejoin="round"/>
  <path d="M157.965 199.069L159.503 197.521C158.624 191.788 166.24 181.724 174.348 173.637L247.56 100.592" stroke="black" stroke-width="2.09236" stroke-linecap="round" stroke-linejoin="round"/>
  <path d="M163.594 197.07C169.348 195.26 177.006 189.161 183.43 182.748L233.238 133.054" stroke="black" stroke-width="2.09236" stroke-linecap="round" stroke-linejoin="round"/>
  <path d="M188.367 235.037C185.218 240.519 181.891 245.907 178.408 251.19L1.54053 222.284C38.2091 156.584 59.0909 91.3444 59.7395 15.0675C59.7604 12.452 59.7604 9.83657 59.7395 7.2002" stroke="black" stroke-width="2.09236" stroke-linecap="round" stroke-linejoin="round"/>
  <path d="M225.412 140.86C218.047 170.373 208.077 197.762 194.853 223.173" stroke="black" stroke-width="2.09236" stroke-linecap="round" stroke-linejoin="round"/>
  <path d="M59.6566 2L242.173 18.854C240.342 53.765 236.754 86.5523 230.759 117.048" stroke="black" stroke-width="2.09236" stroke-linecap="round" stroke-linejoin="round"/>
  <path d="M79.0518 40.9805L161.553 49.9148" stroke="black" stroke-width="4.18472" stroke-linecap="round" stroke-linejoin="round"/>
  <path d="M73.5697 73.8511L192.248 88.1523" stroke="black" stroke-width="1.48558" stroke-linecap="round" stroke-linejoin="round"/>
  <path d="M70.2533 92.0859L161.334 103.552" stroke="black" stroke-width="1.48558" stroke-linecap="round" stroke-linejoin="round"/>
  <path d="M66.0686 110.122L186.411 125.951" stroke="black" stroke-width="1.48558" stroke-linecap="round" stroke-linejoin="round"/>
  <path d="M120.104 217.973L162.119 224.605" stroke="black" stroke-width="1.48558" stroke-linecap="round" stroke-linejoin="round"/>
  <defs>
    <linearGradient id="paint0_linear_3068_24575" x1="49.0563" y1="156.574" x2="105.312" y2="185.164" gradientUnits="userSpaceOnUse">
      <stop stop-color="#7FE0B6"/>
      <stop offset="1" stop-color="#86EDD9" stop-opacity="0.7"/>
    </linearGradient>
  </defs>
</svg>
