<svg width="293" height="247" viewBox="0 0 293 247" fill="none" xmlns="http://www.w3.org/2000/svg">
  <path d="M30.3973 13.1862L31.2379 7.38078C31.7422 3.88411 34.9923 1.46333 38.489 1.97887C76.6049 7.66096 118.262 21.2554 161.803 39.0638C163.753 38.2569 165.725 37.4611 167.709 36.6878C202.418 23.1494 240.87 15.3604 281.788 11.3482C286.887 10.8438 291.247 15.0129 290.989 20.1347L281.575 207.565L280.914 220.655L280.051 237.814C279.827 242.252 275.803 245.524 271.41 244.818L146.269 224.925L7.97153 216.004C4.26191 215.769 1.53854 212.407 2.06529 208.731L27.7972 31.1066L28.9964 22.8244L30.3861 13.1974L30.3973 13.1862Z" fill="white"/>
  <path d="M190.761 129.395L177.94 172.879L209.399 150.375L242.718 177.541L234.66 132.197L266.444 103.54L226.602 104.447L215.395 65.7935L200.03 106.633L167.708 110.78L190.761 129.395Z" fill="url(#paint0_linear_3068_24592)"/>
  <path d="M280.914 220.656L280.051 237.814C279.827 242.252 275.803 245.525 271.41 244.819L146.269 224.926L7.97153 216.005C4.26191 215.769 1.53854 212.407 2.06529 208.731L27.7972 31.1069L28.9964 22.8247" stroke="black" stroke-width="2.24146" stroke-linecap="round" stroke-linejoin="round"/>
  <path d="M30.3967 13.1862L31.2373 7.38078C31.7416 3.88411 34.9917 1.46333 38.4884 1.97887C76.6044 7.66096 118.262 21.2554 161.802 39.0638C163.752 38.2569 165.725 37.4611 167.708 36.6878C202.417 23.1494 240.87 15.3604 281.787 11.3482C286.887 10.8438 291.246 15.0129 290.989 20.1347L281.574 207.565" stroke="black" stroke-width="2.24146" stroke-linecap="round" stroke-linejoin="round"/>
  <path d="M146.281 217.182L161.803 39.0645" stroke="black" stroke-width="1.12073" stroke-linecap="round" stroke-linejoin="round"/>
  <path d="M120.044 61.2977C127.777 63.4719 135.376 65.8366 142.806 68.4255L143.378 64.5926C143.647 64.6374 143.927 64.6823 144.207 64.6823C147.435 64.6935 149.99 62.4072 150.001 59.1683C150.012 56.232 147.928 53.4862 145.104 53.0715L145.597 49.5636C136.048 45.9549 129.738 43.7583 120.089 40.9116" stroke="black" stroke-width="1.12073" stroke-linecap="round" stroke-linejoin="round"/>
  <path d="M80.2256 30.4686C70.7442 28.2271 61.3525 26.165 51.4229 24.0132L50.7168 28.8323C50.2237 28.709 49.6969 28.6306 49.159 28.6306C45.5951 28.6194 42.6924 31.4884 42.6812 35.0524C42.67 38.6163 45.4046 41.3621 48.8452 41.519L48.2624 45.4751C59.3128 47.5709 69.814 49.5994 80.5954 51.8745" stroke="black" stroke-width="1.12073" stroke-linecap="round" stroke-linejoin="round"/>
  <path d="M111.057 33.045C109.869 31.5993 107.964 30.9493 105.363 31.1062C104.792 31.1398 104.22 30.9941 103.727 30.6691C101.273 29.0665 99.0986 28.7863 97.1933 29.8173C96.5209 30.1872 95.6916 30.1984 95.0079 29.8622C92.8785 28.7975 91.2759 29.0553 89.9646 30.7027C89.4267 31.3752 88.6198 31.7674 87.7568 31.7338C84.8877 31.6441 83.3075 33.3364 82.5678 36.1831C82.4333 36.7098 82.1307 37.1581 81.7161 37.4943C79.9341 38.3685 78.8694 39.4332 78.5444 40.6996C78.197 41.9548 78.5892 43.4006 79.71 45.0481C79.9117 45.5412 79.9453 46.0903 79.8108 46.6059C79.0375 49.4413 79.5755 51.6828 82.1083 53.0388C82.8704 53.4423 83.386 54.182 83.5204 55.0337C83.7558 56.5916 84.5291 57.5554 85.9076 57.9925" stroke="black" stroke-width="1.12073" stroke-linecap="round" stroke-linejoin="round"/>
  <path d="M89.36 59.3712C90.5032 61.2092 92.5317 62.0498 95.4568 61.8704C96.0284 61.8368 96.5999 61.9825 97.0931 62.3075C99.5475 63.9102 101.722 64.1904 103.627 63.1593C104.299 62.7894 105.129 62.7782 105.812 63.1145C107.942 64.1791 109.544 63.9214 110.856 62.2739C111.394 61.6015 112.2 61.2092 113.063 61.2428C115.933 61.3325 117.513 59.6402 118.252 56.7935C118.387 56.2668 118.69 55.8185 119.104 55.4823C120.886 54.6081 121.951 53.5434 122.276 52.277C122.623 51.0218 122.231 49.5761 121.11 47.9286C120.909 47.4355 120.875 46.8863 121.009 46.3708C121.783 43.5353 121.245 41.2939 118.712 39.9378C117.95 39.5343 117.434 38.7946 117.3 37.9429C117.042 36.2394 116.145 35.2643 114.543 34.8833" stroke="black" stroke-width="1.12073" stroke-linecap="round" stroke-linejoin="round"/>
  <path d="M62.9199 67.9233L124.538 80.8678" stroke="black" stroke-width="2.24146" stroke-linecap="round" stroke-linejoin="round"/>
  <path d="M36.9199 80.542L139.691 101.421" stroke="black" stroke-width="1.12073" stroke-linecap="round" stroke-linejoin="round"/>
  <path d="M33.8839 99.3931L116.403 114.781" stroke="black" stroke-width="1.12073" stroke-linecap="round" stroke-linejoin="round"/>
  <path d="M73.8257 195.684C72.1894 192.569 69.3988 190.484 66.1263 189.341C63.1115 188.288 60.2424 186.091 58.6958 183.244C57.138 180.364 58.4605 178.313 60.9709 176.688C66.8211 172.911 70.6428 167.42 72.1558 157.625C73.9153 146.26 71.4049 138.931 63.2796 135.053C52.4982 129.92 36.2476 133.562 34.9364 152.043C34.1519 159.944 36.4718 168.518 41.0107 173.92C45.7514 179.557 38.4891 182.359 33.8941 183.805C30.8121 184.769 27.1025 185.419 24.4688 187.335C21.8351 189.251 19.5151 192.827 19.1901 195.976L18.5177 200.582L77.2215 204.919L86.7925 131.063L29.994 121.974L20.86 184.6" stroke="black" stroke-width="1.12073" stroke-linecap="round" stroke-linejoin="round"/>
  <path d="M283.548 16.1001C285.307 17.2432 286.451 19.3166 286.327 21.6589L275.142 235.034C275.008 237.534 273.473 239.573 271.41 240.425" stroke="black" stroke-width="1.12073" stroke-linecap="round" stroke-linejoin="round"/>
  <path d="M103.694 57.0067L106.574 59.7749L106.743 53.5773L109.769 52.1876L108.95 49.6771L114.498 46.7072L107.942 43.8718L107.594 40.913L104.792 40.1734L103.19 34.5137L99.8389 38.8621L96.8353 38.0664L95.524 40.5992" stroke="black" stroke-width="0.840546" stroke-linecap="round" stroke-linejoin="round"/>
  <path d="M93.1022 40.2853L88.2831 39.6465L92.5643 45.0036L91.0289 47.6373L93.4384 49.8339L90.6366 56.0764L97.2377 53.8125L99.0197 56.9393L101.743 55.1462" stroke="black" stroke-width="0.840546" stroke-linecap="round" stroke-linejoin="round"/>
  <defs>
    <linearGradient id="paint0_linear_3068_24592" x1="224.659" y1="30.9533" x2="207.238" y2="202.998" gradientUnits="userSpaceOnUse">
      <stop offset="0.16" stop-color="#8b2424"/>
      <stop offset="0.24" stop-color="#8b2424" stop-opacity="0.94"/>
      <stop offset="0.41" stop-color="#8b2424" stop-opacity="0.77"/>
      <stop offset="0.64" stop-color="#8b2424" stop-opacity="0.49"/>
      <stop offset="0.92" stop-color="#8b2424" stop-opacity="0.12"/>
      <stop offset="1" stop-color="#8b2424" stop-opacity="0"/>
    </linearGradient>
  </defs>
</svg>
