<svg  viewBox="0 0 192 215" fill="none" xmlns="http://www.w3.org/2000/svg">
  <path d="M143.968 53.6203C143.55 55.5425 143.733 60.8479 147.686 64.6574C151.639 68.4669 155.279 70.6151 157.081 71.2153C157.856 71.4762 158.1 72.1372 158.074 72.7025C157.455 86.8098 156.515 117.181 149.219 148.17C148.748 150.162 148.574 150.649 147.364 151.997C142.436 157.494 136.271 161.712 130.211 165.835L123.481 170.34C117.308 174.384 110.978 178.272 104.517 181.708C103.672 182.151 102.749 182.499 101.8 182.595C98.8574 182.873 89.9154 183.247 86.8592 183.238C85.0221 183.238 83.6028 182.777 82.4361 182.151C66.659 173.697 41.879 153.31 37.6039 144.97C33.6074 137.168 35.7145 86.6358 35.7145 67.8754C38.64 67.5275 44.3082 65.3619 47.7562 59.9173C51.2042 54.4727 50.6905 47.0886 51.0561 46.8798C52.3535 46.1318 57.212 44.2706 62.0356 42.6442C64.9351 41.6527 67.8345 40.7916 70.7426 40.0871C92.2314 35.1905 119.833 39.3739 131.509 43.2878C133.328 43.8966 134.121 44.7489 134.835 45.4013C137.447 47.7931 142.14 51.8548 143.977 53.5942" fill="white"/>
  <path d="M92.1264 178.918C92.1264 178.918 122.34 165.098 138.125 149.582C139.562 148.164 140.485 146.564 141.051 143.885C147.198 114.566 148.556 96.2836 149.444 75.6533C149.497 74.3922 149.575 73.3311 148.199 72.731C144.838 71.2611 141.303 68.2779 138.221 63.9204C134.773 58.8846 133.302 49.3696 133.302 49.3696" stroke="black" stroke-width="0.957768" stroke-linecap="round" stroke-linejoin="round"/>
  <path d="M42.7673 129.757C41.9401 112.415 42.271 83.0347 43.1765 74.3982C43.2026 74.1372 43.342 73.9024 43.577 73.7893C45.2749 72.9544 49.0015 70.5104 53.1199 65.9616C57.2209 61.439 58.0393 55.6813 57.9261 52.7589C57.9087 52.3241 58.1438 51.9153 58.5443 51.75C63.4812 49.7235 75.4185 46.2706 89.6979 45.6966C95.7057 45.4531 101.844 45.9227 107.356 46.662C114.548 47.6274 120.677 49.0625 124.073 50.0018C125.431 50.3758 124.987 52.0544 125.092 53.1851C125.214 54.5245 125.44 55.8465 125.745 57.1511C127.303 63.6829 131.448 70.1277 136.672 74.2503M138.631 107.892C137.351 120.616 135.218 135.411 133.72 140.325C133.25 141.873 132.719 143.334 131.84 144.195C129.167 146.787 122.871 151.953 113.912 157.398C110.142 159.859 89.5847 172.523 84.0993 172.523C81.583 172.523 75.0963 168.322 68.8273 163.773C65.301 161.216 61.8443 158.555 59.1974 156.476" stroke="black" stroke-width="0.870698" stroke-linecap="round"/>
  <path d="M70.7339 40.1037C92.2227 35.2071 119.824 39.3905 131.5 43.3044C133.32 43.9132 134.112 44.7655 134.826 45.4179C137.438 47.8097 142.131 51.8714 143.968 53.6108M123.481 170.339C117.308 174.384 110.978 178.271 104.517 181.707C103.672 182.15 102.749 182.498 101.8 182.594C98.8574 182.872 89.9154 183.246 86.8592 183.238C85.0221 183.238 83.6028 182.777 82.4361 182.15C66.659 173.696 41.879 153.31 37.6039 144.969C33.6074 137.167 35.7145 86.635 35.7145 67.8747C38.64 67.5268 44.3082 65.3611 47.7562 59.9165C51.2042 54.4719 50.6905 47.0878 51.0561 46.879C52.3535 46.131 57.212 44.2698 62.0356 42.6434M143.968 53.6195C143.55 55.5417 143.733 60.8471 147.686 64.6566C151.639 68.4661 155.279 70.6143 157.081 71.2145C157.856 71.4754 158.1 72.1364 158.074 72.7017C157.455 86.809 156.515 117.18 149.219 148.169C148.748 150.161 148.574 150.648 147.364 151.996C142.436 157.493 136.271 161.711 130.211 165.834" stroke="black" stroke-width="1.56726" stroke-linecap="round" stroke-linejoin="round"/>
  <path d="M55.2462 90.1493L80.0959 90.2884L89.2557 66.7271L96.5521 90.3754L124.04 90.5319L102.055 108.196L111.058 137.376L85.9296 120.199L63.3873 133.306L73.6615 106.857L55.2462 90.1493Z" fill="url(#paint0_linear_3064_24377)"/>
  <defs>
    <linearGradient id="paint0_linear_3064_24377" x1="93.4778" y1="44.9054" x2="84.45" y2="152.02" gradientUnits="userSpaceOnUse">
      <stop offset="0.16" stop-color="#7FE0B6"/>
      <stop offset="0.24" stop-color="#7FE0B6" stop-opacity="0.94"/>
      <stop offset="0.41" stop-color="#7FE0B6" stop-opacity="0.77"/>
      <stop offset="0.64" stop-color="#7FE0B6" stop-opacity="0.49"/>
      <stop offset="0.92" stop-color="#7FE0B6" stop-opacity="0.12"/>
      <stop offset="1" stop-color="#7FE0B6" stop-opacity="0"/>
    </linearGradient>
  </defs>
</svg>
